<svg fill="none" height="34" viewBox="0 0 247 34" width="247" xmlns="http://www.w3.org/2000/svg"><rect height="33" rx="5.5" stroke="#000" width="245" x=".643066" y=".5"/><g fill="#000"><path d="m15.37 16.638h1.75c1.064 0 1.708-.588 1.708-1.526 0-.952-.644-1.554-1.708-1.554h-1.75zm2.002 1.484h-2.002v3.878h-1.68v-9.926h3.682c1.904 0 3.164 1.288 3.164 3.024 0 1.75-1.26 3.024-3.164 3.024zm3.7118 2.03c0-1.218.896-1.89 2.058-2.058l1.75-.266c.392-.056.504-.252.504-.49 0-.574-.392-1.036-1.288-1.036-.854 0-1.33.546-1.4 1.232l-1.484-.336c.126-1.176 1.19-2.226 2.87-2.226 2.1 0 2.898 1.19 2.898 2.548v3.388c0 .616.07 1.022.084 1.092h-1.512c-.014-.042-.07-.322-.07-.868-.322.518-.994 1.078-2.1 1.078-1.428 0-2.31-.98-2.31-2.058zm2.618.784c.91 0 1.694-.434 1.694-1.764v-.308l-1.778.266c-.504.084-.91.364-.91.924 0 .462.35.882.994.882zm7.0211 3.822h-1.736l1.638-3.57-2.912-6.006h1.834l1.96 4.312 1.834-4.312h1.722zm6.9995-2.758h-1.61v-6.818h1.554v.868c.392-.7 1.246-1.064 2.016-1.064.896 0 1.68.406 2.044 1.204.532-.896 1.33-1.204 2.212-1.204 1.232 0 2.408.784 2.408 2.59v4.424h-1.568v-4.158c0-.798-.406-1.4-1.316-1.4-.854 0-1.414.672-1.414 1.512v4.046h-1.596v-4.158c0-.784-.392-1.4-1.316-1.4-.868 0-1.414.644-1.414 1.512zm11.6067-4.158h3.346c-.028-.798-.56-1.512-1.68-1.512-1.022 0-1.61.784-1.666 1.512zm3.528 1.778 1.372.434c-.364 1.19-1.442 2.156-3.08 2.156-1.848 0-3.486-1.344-3.486-3.654 0-2.156 1.596-3.584 3.318-3.584 2.1 0 3.332 1.386 3.332 3.542 0 .266-.028.49-.042.518h-4.984c.042 1.036.854 1.778 1.862 1.778.98 0 1.484-.518 1.708-1.19zm4.4919-1.554v3.934h-1.624v-6.818h1.582v.91c.448-.784 1.26-1.106 2.016-1.106 1.666 0 2.464 1.204 2.464 2.702v4.312h-1.624v-4.032c0-.84-.378-1.512-1.4-1.512-.924 0-1.414.714-1.414 1.61zm8.3331-4.97v2.086h1.414v1.442h-1.414v3.164c0 .602.266.854.868.854.224 0 .49-.042.56-.056v1.344c-.098.042-.406.154-.994.154-1.26 0-2.044-.756-2.044-2.03v-3.43h-1.26v-1.442h.35c.728 0 1.05-.462 1.05-1.064v-1.022zm2.45 7.056 1.414-.392c.056.616.518 1.162 1.386 1.162.672 0 1.022-.364 1.022-.784 0-.364-.252-.644-.798-.756l-1.008-.224c-1.204-.266-1.834-1.05-1.834-1.988 0-1.19 1.092-2.198 2.506-2.198 1.904 0 2.52 1.232 2.632 1.904l-1.372.392c-.056-.392-.35-1.022-1.26-1.022-.574 0-.98.364-.98.784 0 .364.266.63.686.714l1.036.21c1.288.28 1.96 1.064 1.96 2.072 0 1.036-.84 2.184-2.576 2.184-1.974 0-2.73-1.288-2.814-2.058zm11.7751 1.848h-1.582v-10.136h1.596v4.158c.308-.532 1.092-1.022 2.142-1.022 2.044 0 3.15 1.554 3.15 3.556 0 2.058-1.218 3.612-3.206 3.612-.966 0-1.708-.42-2.1-1.078zm3.668-3.43c0-1.358-.756-2.128-1.834-2.128-1.036 0-1.834.77-1.834 2.128 0 1.344.798 2.156 1.834 2.156 1.064 0 1.834-.812 1.834-2.156zm4.8167 6.188h-1.736l1.638-3.57-2.912-6.006h1.834l1.96 4.312 1.834-4.312h1.722z"/><path clip-rule="evenodd" d="m124.877 16.9066h4.052c-.27-1.0295-1.009-1.4469-1.909-1.4469-.99 0-1.784.5396-2.143 1.4469zm6.429 1.7606h-6.573c.27 1.326 1.386 1.8145 2.358 1.8145 1.225 0 1.749-.7326 1.749-.7326h2.268c-.684 1.7435-2.323 2.7019-4.088 2.7019-2.432 0-4.557-1.796-4.557-4.5151 0-2.7033 2.107-4.3773 4.485-4.3773 2.305 0 4.647 1.5518 4.358 5.1086z" fill-rule="evenodd"/><path clip-rule="evenodd" d="m153.637 18.0051c0-1.3602-.829-2.4236-2.197-2.4236-1.37 0-2.288 1.0634-2.288 2.4236s.918 2.4236 2.288 2.4236c1.368 0 2.197-1.0634 2.197-2.4236zm-6.845.0172c0-2.7897 2.234-4.4637 4.648-4.4637 2.431 0 4.556 1.6909 4.556 4.4283 0 2.773-2.198 4.464-4.63 4.464-2.449 0-4.574-1.691-4.574-4.4286z" fill-rule="evenodd"/><path clip-rule="evenodd" d="m165.638 17.6388v4.7251h-2.396v-4.2027c0-.2966.217-2.4933-1.512-2.5797-.848-.0526-2.36.4002-2.36 2.6848v4.0976h-2.377v-8.7192h2.182l.007 1.2104s.984-1.297 2.819-1.297c2.323 0 3.637 1.674 3.637 4.0807z" fill-rule="evenodd"/><path clip-rule="evenodd" d="m174.397 15.4067c-.756 0-1.08.3663-1.08.7327 0 .5921.811.7667 1.35.8718 1.605.3307 3.225.8022 3.225 2.6492 0 1.7963-1.531 2.7902-3.386 2.7902-2.071 0-3.674-1.2198-3.782-3.0683h2.214c.054.5224.415 1.2025 1.514 1.2025.918 0 1.135-.4699 1.135-.8362 0-.646-.631-.8378-1.244-.977-1.062-.2271-3.35-.6445-3.35-2.6322 0-1.7095 1.694-2.5813 3.441-2.5813 2.017 0 3.35 1.1856 3.458 2.6508h-2.216c-.072-.2967-.359-.8022-1.279-.8022z" fill-rule="evenodd"/><path clip-rule="evenodd" d="m185.174 18.0052c0-1.4482-.811-2.3016-1.981-2.3016-1.098 0-2.198.7668-2.198 2.3016 0 1.5335 1.1 2.3015 2.198 2.3015 1.17 0 1.981-.8547 1.981-2.3015zm2.252-4.36v12.2062h-2.251v-4.3419c-.577.6276-1.388.9413-2.325.9413-2.286 0-4.196-1.8129-4.196-4.4454 0-2.6338 1.91-4.4468 4.196-4.4468 1.797 0 2.47 1.1677 2.47 1.1677l-.003-1.0811z" fill-rule="evenodd"/><path clip-rule="evenodd" d="m200.296 16.9063h4.052c-.269-1.0295-1.009-1.4469-1.909-1.4469-.99 0-1.783.5396-2.143 1.4469zm6.43 1.7604h-6.575c.271 1.326 1.387 1.8145 2.36 1.8145 1.224 0 1.748-.7326 1.748-.7326h2.269c-.685 1.7435-2.323 2.702-4.089 2.702-2.432 0-4.557-1.7961-4.557-4.5152 0-2.7033 2.108-4.3773 4.485-4.3773 2.306 0 4.648 1.5518 4.359 5.1086z" fill-rule="evenodd"/><path clip-rule="evenodd" d="m209.865 16.9066h4.053c-.27-1.0295-1.01-1.4469-1.91-1.4469-.99 0-1.783.5396-2.143 1.4469zm6.43 1.7606h-6.573c.27 1.326 1.386 1.8145 2.358 1.8145 1.225 0 1.748-.7326 1.748-.7326h2.269c-.685 1.7435-2.323 2.7019-4.089 2.7019-2.431 0-4.556-1.796-4.556-4.5151 0-2.7033 2.107-4.3773 4.484-4.3773 2.306 0 4.648 1.5518 4.359 5.1086z" fill-rule="evenodd"/><path clip-rule="evenodd" d="m224.315 20.4114v1.9521h-7.654v-1.1513l4.341-5.614h-4.161v-1.9537h7.295v1.1514l-4.341 5.6155z" fill-rule="evenodd"/><path clip-rule="evenodd" d="m233.686 13.6445v7.6728.1746c0 2.3541-1.243 4.447-4.323 4.447-2.882 0-4.448-1.8317-4.448-3.2089h2.251s.341 1.1685 2.125 1.1685c1.513 0 2.144-.8377 2.144-2.0574v-.3664c-.397.4361-1.153.9756-2.503.9756-2.36 0-3.837-1.6555-3.837-4.0793l-.019-4.7265h2.342v4.2027c0 1.1855.433 2.5813 1.927 2.5813.774 0 2.053-.3663 2.053-2.6864v-4.0976z" fill-rule="evenodd"/><path clip-rule="evenodd" d="m120.748 19.7465c0 .5437.214.768.612.768.28 0 .462-.0325.727-.1121l.148 1.7918c-.496.159-.975.2556-1.587.2556-1.403 0-2.263-.4473-2.263-2.3839v-9.9082h2.363z" fill-rule="evenodd"/><path clip-rule="evenodd" d="m145.775 17.6386v4.7252h-2.396v-4.2027c0-1.2026.126-2.7203-1.531-2.5798-.431.0341-1.621.2257-1.621 2.6849v4.0976h-2.377v-4.2027c0-1.2026.126-2.7203-1.531-2.5798-.433.0341-1.621.2257-1.621 2.6849v4.0976h-2.377v-8.7192h2.182l.002 1.2104s.834-1.297 2.39-1.297c1.875 0 2.61 1.412 2.61 1.412s.808-1.429 2.866-1.429c2.341 0 3.404 1.674 3.404 4.0976z" fill-rule="evenodd"/><path clip-rule="evenodd" d="m188.436 18.3697v-4.7252h2.396v4.2027c0 .2967-.217 2.4933 1.513 2.5798.847.0525 2.359-.4003 2.359-2.6849v-4.0976h2.378v8.7192h-2.18l-.01-1.2104s-.984 1.297-2.819 1.297c-2.323 0-3.637-1.674-3.637-4.0806z" fill-rule="evenodd"/><path clip-rule="evenodd" d="m101.954 19.0475 4.829 2.2325c.598.2768 1.021.7414 1.249 1.2743.577 1.3496-.212 2.7298-1.45 3.2261-1.238.4962-2.558.1769-3.158-1.2265l-2.101-4.9272c-.163-.3819.246-.7572.631-.5792z" fill-rule="evenodd"/><path clip-rule="evenodd" d="m102.244 17.6027 4.985-1.8842c1.656-.6262 3.466.5586 3.441 2.2802 0 .0225 0 .045-.001.0676-.036 1.6765-1.795 2.8033-3.415 2.2102l-5.005-1.8319c-.399-.146-.402-.6917-.005-.8419z" fill-rule="evenodd"/><path clip-rule="evenodd" d="m101.965 16.9501 4.9-2.082c1.628-.6919 2.041-2.7686.766-3.9685-.017-.0158-.034-.0315-.051-.0471-1.25-1.16045-3.317-.7519-4.028.7767l-2.199 4.7225c-.176.3766.221.7644.612.5984z" fill-rule="evenodd"/><path clip-rule="evenodd" d="m100.704 16.1274 1.781-4.8847c.221-.6057.18-1.2234-.048-1.75629-.578-1.34898-2.144-1.78443-3.3822-1.28729-1.2377.49732-1.9371 1.62678-1.3358 3.02968l2.1152 4.9218c.164.3814.7278.3663.8698-.0232z" fill-rule="evenodd"/></g></svg>